<svg width="600" height="611" viewBox="0 0 600 611" fill="none" xmlns="http://www.w3.org/2000/svg">
<g clip-path="url(#clip0_130_69278)">
<path d="M300 0C134.315 0 0 134.315 0 300V311C0 476.685 134.315 611 300 611V611C465.685 611 600 476.685 600 311V300C600 134.315 465.685 0 300 0V0Z" fill="#0D0D0D"/>
<path d="M266 414C266 401.444 268.403 386.035 264.48 374C260.292 361.152 250.227 353.944 239 347.424C235.143 345.185 230.588 341.606 226 341.318C222.381 341.091 218.402 342.957 215 344.025C207.629 346.339 200.345 348.934 193 351.33C179.517 355.729 165.255 358.883 152.09 364.133C148.183 365.692 146.003 369.672 141.999 371.091C138.307 372.399 134.674 370.236 131 371.637C125.688 373.662 121.252 377.734 116 380C117.485 388.405 112.249 399.534 102 398.05C96.6208 397.271 93.0972 393.051 90.0001 389C79.8738 392.217 69.1724 392.787 59.0896 395.859C55.5212 396.946 52.8208 401.141 49.0001 401.133C45.5611 401.126 41.9691 397.327 41.6621 394C41.2009 389.002 46.5607 387.419 49.3628 384.505C53.548 380.153 56.2557 372.467 58.7331 367C61.3532 361.219 56.0232 355.327 59.7432 350.214C65.3774 342.469 81.0961 349.524 84.6976 337.896C85.498 335.312 87.0238 330.658 86.7632 328C86.3669 323.958 79.6552 316.789 75.9607 315.313C69.9209 312.9 64.731 315.609 59.0047 310.775C48.4507 301.866 49.5574 287.194 62.0001 280.417C68.5672 276.841 76.4441 278.185 81.906 283.214C87.1459 288.038 88.0522 292.596 96.0001 292.961C104.251 293.339 115.855 294.846 123.83 292.683C127.274 291.749 129.318 287.995 133.001 287.662C136.898 287.31 139.03 291.091 142.285 292.4C146.454 294.077 152.574 293 157 293H177C180.552 293 184.699 292.443 188 294.013C195.29 297.479 201.817 305.096 208 310.247C221.515 321.505 234.271 330.434 250 338.248C256.148 341.302 262.133 344.971 269 346C265.774 338.136 262.862 329.039 257.895 322.09C253.779 316.331 247.418 312.017 242 307.576C236.988 303.467 232.334 298.551 227 294.881C222.205 291.582 219.088 295.052 214 294.851C206.114 294.54 200.747 287.248 200 280C192.769 279.025 185.895 276.298 179 274C176.01 273.003 172.264 271.081 169.039 271.502C162.849 272.308 160.181 280.201 153 279.692C146.463 279.229 143.366 271.672 137 271.434C132.406 271.261 125.396 271.661 121.17 273.563C116.481 275.674 113.978 281.006 108.001 279.551C97.6368 277.028 97.3113 262.682 108 260.333C114.475 258.911 116.079 265.226 121.209 266.681C126.373 268.146 133.583 266.001 139 266C139.568 260.494 144.368 257.022 145.006 252C145.894 245.009 136.641 239.386 132.169 235.785C129.776 233.858 127.57 231.528 124.181 232.337C117.372 233.963 115.785 243.131 107 241.427C100.124 240.093 98.461 233.032 92.791 230.603C90.4346 229.594 87.4982 230.069 85.0001 229.83C77.956 229.157 71.0877 229 64.0001 229C59.8618 229 55.1407 228.577 51.2092 230.148C46.0224 232.222 40.5363 241.607 34.7462 233.772C31.5572 229.456 35.0581 223.388 40.004 222.542C43.1652 222.001 45.9111 224.224 49.0001 224.441C56.4571 224.963 64.4708 224 72.0001 224C77.9908 224 88.13 225.955 93.6104 223.397C99.2146 220.781 100.373 213.544 108 213.514C112.267 213.497 116.565 215.945 119.201 219.184C121.082 221.496 121.981 224.802 125.133 225.681C129.281 226.839 132.957 224.146 137 224.353C140.468 224.53 143.476 226.688 147 226.945C156.372 227.63 165.695 226.273 175 228C176.418 225.199 179.092 222.249 179.168 219C179.346 211.458 173.165 200.969 170.399 194C169.336 191.323 168.463 187.634 166.301 185.603C163.662 183.125 159.165 183.992 156.094 181.991C152.962 179.949 152.272 176.107 149.451 174.013C145.164 170.83 136.177 170.545 131 169.151C125.392 167.641 115.915 163.303 110.184 164.411C106.632 165.098 103.852 169.897 101 172C102.711 177.817 106.317 182.82 109.397 188C110.771 190.312 112.035 193.476 114.39 194.972C117.714 197.085 125.109 196.957 129 196.981C135.727 197.022 142.667 190.33 148.566 196.419C155.71 203.792 143.552 215.377 136.318 207.796C134.904 206.314 134.535 204.889 134 203C121.282 203 108.65 202.039 96.0001 200.83C89.5646 200.215 82.4655 198.662 76.0148 199.073C70.1358 199.448 67.2076 206.041 61.0001 205.681C55.4576 205.361 49.1454 199.599 48.6953 194C48.0232 185.639 57.363 178.888 64.9962 182.009C69.8764 184.004 71.8433 188.189 73.0001 193C83.9534 193.03 95.1405 194.628 106 196C104.637 188.353 99.5725 181.782 96.0001 175C91.416 175.813 87.2488 175.787 83.0001 173.558C68.0912 165.736 69.3518 144.713 86.0001 139.939C93.8608 137.685 101.741 141.499 106.351 148.004C108.448 150.963 109.018 155.459 112.278 157.428C115.546 159.402 120.333 159.861 124 160.849C133.32 163.358 142.79 165.055 152 168C157.539 161.48 166.929 159.442 171.976 168.015C174.983 173.123 170.85 177.742 172.297 183C175.578 194.919 181.784 205.975 185 218C194.541 216.666 201.539 222.637 203 232C206.189 232 209.954 231.494 213 232.603C217.14 234.109 220.794 238.167 224 241.075C231.244 247.645 239.578 256.875 249 260C247.461 247.885 245.907 233.353 239.68 222.91C238.011 220.112 237.56 217.056 234.853 214.965C230.465 211.578 222.655 206.359 217.039 205.758C210.311 205.037 207.459 215.143 200.434 207.852C199.699 207.088 199.113 205.998 198.786 204.995C197.223 200.195 201.999 194.582 206.996 195.492C211.158 196.249 213.544 199.652 218 200C215.092 185.909 208.917 172.226 207 158C199.299 157.931 193.577 155.345 189 149C184.199 149.706 177.605 150.052 173.17 151.893C169.939 153.233 167.784 156.711 164 156.704C157.499 156.691 152.213 145.093 147 141.59C142.565 138.611 139.634 141.562 135 141.707C129.884 141.867 124.528 137.669 122.742 132.999C121.051 128.576 124.218 124.155 122.767 120C119.808 111.523 111.721 110.974 106.395 105.606C102.452 101.631 103.453 95.9642 108.105 93.024C112.568 90.2038 118.588 92.7641 119.639 98.0047C120.257 101.087 118.419 103.978 119.773 107C121.396 110.621 124.806 113.683 127 117C135.332 115.59 140.033 114.874 146 122C149.331 120.717 152.46 119.53 156 119C156.69 111.343 163.159 101.94 171.985 106.319C175.62 108.123 178.309 111.955 178.698 116C179.005 119.196 177.901 121.837 180.333 124.482C182.733 127.092 188.257 131.408 192 130.777C196.348 130.044 199.206 126.762 204 127.369C209.034 128.007 212.302 132.205 217 133.228C220.244 133.934 223.972 131.985 227 131C225.818 122.682 229.741 115.301 220.985 109.603C218.212 107.799 215.141 108.132 212 107.91C207.134 107.567 201.887 106.131 197 106.984C192.266 107.81 188.78 111.351 184.228 107.485C180.562 104.372 181.741 99.9771 180.066 96.0001C177.894 90.8453 173.159 84.301 169.24 80.3141C165.305 76.3107 159.128 77.1864 156.909 70.9955C154.545 64.3995 161.228 57.1723 167.996 59.6074C178.506 63.3885 170.544 72.4087 174.703 79.0001C177.124 82.8379 181.029 89.7656 185.184 91.818C187.632 93.027 190.417 92.4608 192.815 94.024C195.2 95.5788 196.286 98.4242 198.609 99.9739C203.133 102.991 211.791 102 217 102C215.648 97.0574 213.743 89.1762 209.606 85.8427C206.043 82.9713 201.496 82.4455 198.225 78.8952C190.185 70.1695 196.773 54.2535 209 54.2756C215.071 54.2865 220.892 57.7814 223.91 63.0039C225.366 65.5224 225.421 69.1086 227.589 71.1567C230.135 73.5628 234.795 74.2264 238 75.4245C241.788 76.8407 246.917 79.9172 250.513 76.6421C254.274 73.2176 252.973 69.2113 251.72 65.0001C250.489 60.8626 249.8 54.9409 247.066 51.4986C245.296 49.2705 242.226 48.4628 240.109 46.6065C235.637 42.6854 234.865 36.5897 239.228 32.2285C244.496 26.9634 253.088 30.0371 255.164 37.0009C256.799 42.4894 251.789 46.935 253.79 53.0001C255.101 56.973 256.249 60.967 257.375 64.9955C258.837 70.2255 266.139 74.5317 271.715 71.8789C274.756 70.4318 277.738 66.5496 279.849 64.0001C284.122 58.8377 280.473 54.8067 281.228 49.0001C282.403 39.9691 291.917 32.3526 301 34.3952C307.804 35.9251 313.609 43.0602 313.866 50.0001C313.979 53.0538 312.377 56.005 312.643 59.0001C312.981 62.8078 319.08 70.3956 323.09 70.7131C325.065 70.8695 327.083 69.6248 329 69.2732C331.256 68.8595 333.735 69.2779 335.896 68.3967C340.115 66.6764 342.399 60.6708 344.6 57.0001C346.262 54.2289 348.594 51.2245 349.246 48.0001C350.028 44.1323 346.922 40.8583 347.758 37.0009C348.87 31.8719 354.752 26.9528 359.996 29.3365C366.421 32.2574 368.32 39.4649 363.581 44.7864C361.081 47.5932 357.251 48.0498 354.637 50.5603C352.573 52.5424 351.414 55.5613 349.988 58.0001C346.295 64.3185 338.884 72.5749 345.966 79.3959C349.723 83.0144 358.665 79.2604 362.999 78.281C364.847 77.8634 366.974 77.6624 368.397 76.2586C370.944 73.7455 369.661 69.1628 370.653 66.0001C373.054 58.3431 381.162 53.4789 389 55.419C395.945 57.138 401.644 64.7959 400.772 72.0001C400.405 75.0277 398.277 77.8953 398.726 81.0001C399.56 86.7679 406.548 93.7207 411 97.0001C413.962 87.8976 419.404 78.3496 421.11 69.0001C421.847 64.9619 419.061 60.9831 421.183 57.1089C424.072 51.8348 432.838 52.3916 433.468 59.0039C433.975 64.3228 428.165 66.1488 426.058 70.1328C423.798 74.4053 422.948 79.4719 421.305 84.0001C419.478 89.0336 416.915 93.6881 416 99.0001C419.388 99.6811 422.671 102.791 426 102.849C429.837 102.915 437.074 97.3811 439.397 94.4823C441.618 91.7093 440.555 88.1901 441.434 85.0009C442.915 79.6216 448.514 75.9735 453.985 77.6567C461.862 80.0796 464.387 90.2541 457.891 95.5664C453.739 98.9626 449.651 96.909 445 97.8489C441.021 98.653 437.324 102.112 434.005 104.309C431.219 106.152 426.93 108.67 428.623 112.725C429.811 115.573 433.413 115.73 436 116.285C439.893 117.12 443.954 119.009 448 118.697C450.757 118.484 453.222 116.731 455.996 116.784C460.057 116.861 463.829 120.914 461.928 124.957C460.753 127.456 457.851 129.587 455.004 129.03C452.124 128.467 450.327 125.713 447.715 124.585C443.243 122.654 435.862 120.755 431 120.383C424.46 119.884 420.663 127.421 414 127.88C408.474 128.26 405.108 124.115 400 123.317C395.299 122.583 390.443 125.103 386 126.241C379.921 127.798 372.804 127.637 367.09 130.429C359.219 134.275 356.571 141.286 354 149C351.14 157.583 348.291 166.281 345.876 175C345.061 177.94 345.2 181.15 344.106 184C340.298 193.927 328.175 199.175 322.603 208C317.753 215.684 322.963 227.36 319.4 235.83C316.64 242.392 308.25 245.556 305.028 252C303.161 255.734 304 260.949 304 265C304 275.061 303.738 285.016 305 295C313.674 288.89 321.633 280.011 328.576 272C331.21 268.96 334.556 265.957 335.721 262C339.38 249.578 340.806 234.861 342.342 222C342.911 217.232 339.661 212.443 342.604 208.044C347.183 201.2 352.273 206.68 358 203.903C368.399 198.86 378.606 190.729 388 184C387.328 181.026 386.314 178.082 386.774 175C388.262 165.027 397.905 157.213 408 159.529C411.625 160.361 415.298 163.861 419 163.713C422.049 163.591 425.374 160.809 428 159.41C432.152 157.198 438.199 154.842 441.412 151.363C445.069 147.403 445.116 140.823 452 140.337C459.218 139.827 463.819 148.358 458.605 153.606C454.405 157.832 449.99 155.46 445 156.677C439.977 157.903 435.454 161.651 431 164.138C428.651 165.45 425.393 166.504 423.643 168.637C421.437 171.326 423.156 175.792 422.692 179C421.523 187.082 414.883 193.572 407 195C405.365 202.132 402.976 209.063 400.667 216C399.757 218.732 397.67 222.708 398.697 225.625C399.595 228.177 403.079 230.249 405 232C410.832 228.352 420.361 222.472 423.972 216.536C425.969 213.255 424.812 209.315 427.434 206.109C430.201 202.724 434.387 203.083 437.363 200.4C440.463 197.606 441.777 192.494 444 189C442.169 186.181 439.754 183.428 439.244 180C438.291 173.602 443.687 168.02 450 168.099C455.227 168.164 458.679 172.815 464 172.054C474.973 170.486 485.264 165.484 496 163C495.699 158.729 495.34 155.028 497.19 151.001C500.384 144.049 508.243 139.041 516 140.333C525.817 141.969 534.905 153.062 530.633 163C529.526 165.574 527.874 167.919 525.895 169.895C523.917 171.87 521.641 173.447 519 174.387C515.312 175.698 511.788 175.625 508 175C505.537 179.42 500.376 184.107 499.211 189C498.545 191.798 500.414 194.363 501.022 197C502.04 201.422 500.339 205.682 496.892 208.581C489.288 214.975 484.695 208.471 477 208.583C467.913 208.716 456.949 211.851 448.015 213.772C443.687 214.703 441.757 217.957 437.985 219.818C434.433 221.571 430.547 219.728 427 221.473C419.991 224.921 415.354 231.891 408 235C409.005 241.304 413.506 240.998 419 241H448C450.709 240.999 454.205 241.496 456.61 239.972C462.334 236.345 463.47 229.916 471 227.932C475.843 226.656 480.844 228.022 484.91 230.849C487.5 232.648 489.496 235.683 493.015 235.215C497.315 234.642 507.554 230.3 509.976 226.61C512.123 223.338 511.478 219.325 514.394 216.228C517.435 213 521.239 213.989 524.711 211.973C528.75 209.627 531.19 204.804 535 202C534.128 196.849 531.783 191.988 535.009 187.105C540.087 179.42 551.055 182.484 553.203 191.001C555.985 202.028 539.327 203.302 534.189 209.019C532.437 210.969 530.682 213.262 530.657 216C530.618 220.376 533.761 223.609 531.127 227.956C525.981 236.45 519.925 230.653 513 232.207C506.163 233.741 499.918 239.022 493 241C492.962 245.565 492.011 249.579 491 254C500.907 260.897 512.086 269.882 520 279C525.567 276.856 530.12 275.541 536 277.613C547.224 281.566 553.652 294.7 546.348 304.985C542.913 309.822 536.984 313.285 531 313.596C524.856 313.915 522.415 311.89 517 316.29C511.223 320.984 504.724 324.902 505.02 333.001C505.232 338.802 511.507 347.418 517.17 349.307C521.35 350.702 524.885 348.602 528.895 351.653C534.575 355.974 532.77 362.145 535 368L534 369C529.782 368.212 526.118 370.2 522 369.613C519.106 369.201 516.805 367.269 514 366.638C510.609 365.875 504.413 366.438 501.039 367.318C496.365 368.537 494.279 373.782 489 373.782C484.129 373.782 481.426 370.156 480 366C472.107 365.995 464.747 364.212 457 362.92C452.043 362.093 447.644 360.721 443 363C445.299 366.49 447.962 371.859 451.379 374.311C454.11 376.27 457.999 375.376 460.985 377.093C468.015 381.137 468.497 389.685 461.956 394.482C457.575 397.695 451.955 396.103 448.894 391.812C445.572 387.155 448.732 381.873 446.683 377C445.336 373.798 442.566 368.965 439.621 367.012C437.619 365.684 435.063 365.583 433.019 364.258C430.426 362.58 429.029 359.715 426.545 357.988C420.023 353.454 408.62 352.019 401 349.86C391.424 347.145 379.978 341.495 370 341.289C365.906 341.205 362.434 343.809 359 345.694C349.012 351.179 339.077 357.614 333.633 368C326.51 381.592 329 399.17 329 414C370.233 414 411.008 419.187 452 423.17C470.301 424.948 488.623 428.145 507 429.039C519.795 429.661 533.293 428.786 546 430.285C550.819 430.854 560.353 433.002 564.351 429.397C566.597 427.371 567.557 423.699 568.719 421C571.81 413.818 574.196 406.411 576.667 399C587.308 367.075 591 334.478 591 301C591 171.707 501.154 52.7446 376 18.8489C356.142 13.4706 334.653 9.03326 314 9.00006C275.076 8.9375 237.854 12.5407 201 26.0533C94.8721 64.965 20.3367 165.023 9.92522 277C6.28301 316.173 9.62552 357.505 22.0009 395C24.671 403.09 27.436 411.089 30.6004 419C31.816 422.039 32.8482 426.972 35.649 428.972C39.4858 431.713 48.4698 430 53.0001 430C68.4145 430 83.679 429.701 99.0001 428.169C154.516 422.618 210.148 414.006 266 414Z" fill="#F6F8FA"/>
<path d="M279 31C278.255 21.4478 269.448 30.2553 279 31ZM322.589 27.0856C319.91 28.9965 322.433 33.888 325.411 31.7631C328.077 29.8611 325.471 25.0295 322.589 27.0856ZM214.356 39.1713C211.725 40.5715 214.188 44.135 216.644 42.8287C219.275 41.4285 216.812 37.865 214.356 39.1713ZM382.564 39.1713C380.573 40.4706 382.241 44.2614 384.436 42.8287C386.427 41.5293 384.759 37.7386 382.564 39.1713ZM188.434 43.1366C184.957 45.1606 187.975 51.1215 191.566 48.9144C194.992 46.809 191.988 41.0673 188.434 43.1366ZM404.643 44.132C402.505 45.7085 405.244 49.0826 407.397 47.8395C409.982 46.346 406.959 42.4238 404.643 44.132ZM332.314 47.1752C329.107 48.7813 331.385 53.7353 334.721 52.338C338.103 50.9216 335.552 45.5538 332.314 47.1752ZM264.275 48.9707C261.008 49.924 262.531 55.2147 265.895 54.2492C269.517 53.2096 267.73 47.9625 264.275 48.9707Z" fill="#05111D"/>
<path d="M286 64C282.984 68.2812 277.057 72.0291 275.352 77C274.258 80.1879 275.842 83.6591 274.721 87C272.238 94.4057 269.89 95.7644 274.885 103C276.53 105.383 280.171 112.688 283.786 112.079C287.313 111.485 287.194 103.596 287.579 101C289.284 89.4807 292.494 77.6015 293 66L286 64ZM291 114C298.471 110.516 304.981 102.558 310.999 96.9105C313.612 94.4593 316.807 91.7622 317.258 88C317.663 84.6137 318.244 78.236 317.311 75C315.192 67.6513 306.434 61.336 299.589 67.1358C296.548 69.7119 296.762 76.3492 296.282 80C294.785 91.3854 293.557 102.812 291 114Z" fill="#F6F8FA"/>
<path d="M128 77C130.458 77.6464 131.542 77.6464 134 77C132.025 73.528 129.975 73.5281 128 77ZM466 78H471C470.168 73.0085 466.832 73.0085 466 78Z" fill="#05111D"/>
<path d="M216 83C217.553 91.7108 223.363 101.736 228.36 108.995C230.575 112.214 233.535 115.644 237.91 114.663C242.183 113.705 244.772 108.327 246.999 105C248.583 102.634 251.068 99.8714 251.601 97C252.339 93.028 248.384 88.2377 248 84C241.14 82.5802 231.959 77.1458 225 78.1034C221.751 78.5504 218.784 81.4023 216 83ZM340 162H342C344.808 153.37 349.684 144.735 351.791 136C352.997 131 349.818 126.264 355.109 122.608C359.59 119.512 363.36 124.319 368 123.965C378.347 123.174 388.918 119.311 399 117C399.02 110.083 400.228 105.289 406 101C404.486 97.6036 402.302 94.9317 400.014 92C398.264 89.7577 396.501 86.3737 393.816 85.132C391.557 84.0879 389.269 85.2633 387 85.5872C384.702 85.9152 382.21 85.2925 380.015 86.1967C375.025 88.252 369.49 95.7755 366.31 100C364.355 102.598 363.849 107.2 360.772 108.762C357.235 110.559 353.366 106.704 355.086 103.147C356.402 100.423 360.119 99.6152 362.271 97.6868C366.993 93.4545 373.278 87.1335 375 81C366.85 82.6813 354.529 83.1868 347.379 87.4298C344.879 88.9131 343.664 91.7665 341.671 93.787C339.42 96.0703 335.89 96.9946 333.938 99.4985C332.346 101.54 332.096 104.546 331.6 107C330.459 112.649 326.989 120.271 327.81 126C328.33 129.622 331.31 132.306 331.732 136C332.168 139.815 329.753 143.215 331.129 147C333.049 152.281 337.347 157.017 340 162Z" fill="#F6F8FA"/>
<path d="M143.105 85.7431C133.231 89.8755 139.657 105.375 149.957 101.257C160.805 96.9197 153.414 81.4286 143.105 85.7431Z" fill="#05111D"/>
<path d="M268 134C274.488 125.063 288.553 125.646 291.384 138C292.651 143.529 287.169 147.435 289.548 153C290.888 156.135 294.237 165.043 298.108 165.534C300.432 165.829 301.773 163.609 302.846 161.941C305.423 157.937 308.845 153.456 310.529 149C312.54 143.677 307.579 138.658 309.742 133.001C312.121 126.779 318.67 127.293 321.836 122.686C323.628 120.079 323.789 116.028 324.4 113C325.482 107.632 327.269 102.428 328 96.9999C325.577 96.3174 322.544 94.6799 320 95.4173C316.81 96.3419 314.257 99.7488 312 102C306.412 107.575 300.728 113.072 295.209 118.715C292.745 121.234 290.542 125.122 286.985 126.199C280.572 128.141 279.911 121.014 278.405 117C276.456 111.806 271.578 106.613 268.41 102.023C266.988 99.9631 265.637 98.1314 262.961 97.9127C256.148 97.356 252.414 106.396 249.12 111C247.368 113.449 245.381 115.807 245.944 119C247.788 129.46 258.731 132.405 268 134Z" fill="#F6F8FA"/>
<path d="M481.015 96.7429C470.237 100.936 477.4 110.434 479.702 117C480.571 119.478 480.368 123.386 479.684 125.907C478.435 130.503 472.562 132.506 473.539 137.996C474.301 142.285 478.902 144.884 482.981 143.392C490.371 140.688 486.741 134.193 485.634 129C485.058 126.295 485.618 122.745 486.133 120.043C487.036 115.313 492.178 114.232 493.99 109.957C497.376 101.967 489.088 93.6027 481.015 96.7429ZM381.318 103.082C377.915 105.107 381.541 109.145 384.382 106.958C387.005 104.938 383.981 101.497 381.318 103.082ZM506.213 116.851C501.355 118.525 503.91 126.034 508.856 124.338C513.665 122.689 510.989 115.206 506.213 116.851ZM92.3324 118.047C88.2593 120.652 92.7886 126.423 96.6811 123.953C100.904 121.273 96.2693 115.53 92.3324 118.047Z" fill="#05111D"/>
<path d="M147 135C150.869 137.95 154.05 141.131 157 145C159.085 143.868 161.537 141.981 164.002 141.942C167.035 141.894 169.168 144.562 172 145.242C179.932 147.147 186.515 143.493 188 136C183.99 133.272 179.682 128.978 175 127.579C171.672 126.584 168.336 128.27 165 127.528C162.397 126.949 160.507 124.937 158 124.193C149.919 121.794 148.083 129.195 147 135Z" fill="#F6F8FA"/>
<path d="M398.059 133.762C390.971 136.396 394.213 148.858 401.956 146.214C409.938 143.488 405.924 130.838 398.059 133.762Z" fill="#05111D"/>
<path d="M245 134C246.238 140.966 250.066 147.407 252.576 154C255.851 162.603 257.735 172.973 262.139 181C264.481 185.268 268.601 188.433 271.83 192C275.047 195.554 277.6 198.942 282 201C284.148 197.855 289.464 193.012 289.095 189C288.691 184.603 284.009 181.864 284.604 177C285.041 173.432 288.015 171.184 289.277 168C290.814 164.123 287.476 158.186 285.034 155.188C282.634 152.241 279.256 153.137 276 152.016C269.82 149.889 266.929 145.171 266 139C258.8 137.937 252.339 134.335 245 134ZM219 139C218.745 142.115 218.342 145.185 216.865 148C215.46 150.677 212.936 152.853 212.617 156C212.223 159.891 214.498 164.372 215.656 168C218.072 175.57 220.197 183.293 222.127 191C223.191 195.253 223.712 200.099 227.228 203.099C230.249 205.676 235.074 209.119 239 209.973C242.897 210.821 246.161 208.341 249.867 210.897C252.639 212.809 253.738 216.184 256.224 218.39C261.298 222.894 269.408 227.492 276 229C275.983 222.94 276.487 213.332 273.486 208C268.196 198.601 257.333 193.174 253.133 183C248.928 172.814 247.144 161.471 243.667 151C242.522 147.554 241.74 142.283 239.157 139.6C233.378 133.598 225.451 137.994 219 139Z" fill="#F6F8FA"/>
<path d="M421.757 141.046C418.934 143.331 422.597 147.915 425.382 145.343C428.061 142.868 424.555 138.783 421.757 141.046ZM371.618 144.046C368.769 146.298 372.62 150.893 375.382 148.343C378.136 145.8 374.451 141.807 371.618 144.046Z" fill="#05111D"/>
<path d="M314 203H316C323.415 192.473 340.947 182.482 336.286 167C334.273 160.312 328.961 154.342 326 148C323.34 148.494 319.826 148.421 317.39 149.6C313.425 151.517 307.124 162.683 306.774 167C306.462 170.849 309.747 174.078 309.801 178C309.856 182.014 306.771 185.149 306.718 189C306.654 193.592 311.674 199.199 314 203Z" fill="#F6F8FA"/>
<path d="M225.224 159.801C220.39 161.588 222.911 168.771 227.856 167.149C232.782 165.533 230.119 157.991 225.224 159.801ZM371.143 162.971C365.924 164.234 368.587 172.706 373.776 171.208C378.777 169.763 376.041 161.785 371.143 162.971Z" fill="#05111D"/>
<path d="M461 178C459.449 186.556 454.123 186.133 448.498 190.853C443.51 195.041 440.813 203.486 444 209L477 203C477.151 196.749 479.766 191.293 486 188.894C488.798 187.817 492.037 188.361 494.482 186.397C498.344 183.295 500.773 177.786 504 174C502.269 171.579 500.286 168.538 496.999 168.238C493.773 167.943 489.991 170.476 487 171.484C478.66 174.294 469.852 177.614 461 178Z" fill="#F6F8FA"/>
<path d="M188.144 172.851C182.486 174.693 186.068 183.636 191.772 181.238C197.039 179.024 193.227 171.196 188.144 172.851ZM129.618 178.086C127.03 179.933 129.896 184.245 132.682 182.825C136.108 181.078 132.573 175.976 129.618 178.086ZM237.438 181.047C233.34 183.715 237.67 190.342 241.678 187.338C245.632 184.376 241.542 178.374 237.438 181.047ZM356.144 180.89C351.182 182.258 354.165 189.786 358.867 188.288C363.665 186.759 360.631 179.654 356.144 180.89Z" fill="#05111D"/>
<path d="M345 261C351.066 259.919 356.382 256.43 362 254C364.601 252.875 368.266 251.798 369.972 249.363C371.399 247.327 371.006 244.337 371.519 242C372.315 238.369 373.915 234.874 376.34 232.043C380.726 226.923 386.646 227.659 391.298 223.987C393.716 222.078 394.438 217.794 395.28 215C397.363 208.088 400.034 201.171 401 194C397.379 193.13 392.646 189.509 389 190.237C384.891 191.057 380.381 195.357 377 197.72C371.573 201.512 364.08 204.984 359.563 209.785C357.66 211.808 357.167 214.699 355.492 216.897C354.011 218.838 351.664 220.14 350.589 222.375C348.38 226.967 348.394 233.981 347.925 239C347.24 246.339 345.925 253.683 345 261ZM295.517 192.032C293.381 193.346 292.023 195.98 290.667 198.001C285.158 206.208 285.548 210.573 285.961 220C286.117 223.561 285.446 227.517 286.318 231C287.459 235.558 294.631 245.275 300.001 242.338C310.087 236.822 310 227.931 310 218C310 213.618 310.403 209.103 308.586 205C306.737 200.822 301.868 188.128 295.517 192.032Z" fill="#F6F8FA"/>
<path d="M554.059 223.028C545.178 227.871 552.877 242.409 561.895 237.539C571.505 232.35 563.379 217.944 554.059 223.028Z" fill="#05111D"/>
<path d="M252 224L251 225C252.588 232.695 254.683 240.285 256.196 248C257.08 252.51 257.122 257.73 258.85 262C260.824 266.875 265.048 270.863 268.49 274.715C275.405 282.452 282.485 291.002 291 297C291 286.617 291.999 276.342 292 266C292 261.967 292.813 256.842 291.397 253C290.064 249.386 286.653 246.645 284 244.001C275.928 235.954 263.042 227.249 252 224ZM260 305C258.841 296.399 255.86 284.004 250.581 277C244.348 268.731 234.695 262.778 227 255.95C220.954 250.585 214.348 242.518 207.004 239.029C201.296 236.316 198.567 242.905 193.985 244.91C185.864 248.464 177.485 241.309 175 234H152C149.567 234.005 145.602 233.441 143.85 235.603C140.803 239.365 147.901 248.216 151.093 249.973C154.173 251.668 157.881 251.105 160.985 253.009C165.349 255.687 166.258 261.058 170.275 263.722C177.241 268.343 188.973 270.873 197 273.285C205.321 275.785 210.004 265.487 218.996 270.001C226.923 273.979 224.947 280.838 229.6 286.621C231.899 289.48 235.954 291.125 239 293.053C245.535 297.19 252.408 303.216 260 305Z" fill="#F6F8FA"/>
<path d="M518.104 245.89C512.243 247.421 515.198 256.232 520.772 254.199C525.665 252.415 523.083 244.591 518.104 245.89ZM81.2241 247.801C76.6052 249.52 79.3842 256.406 83.8561 255.248C88.8213 253.963 86.2116 245.944 81.2241 247.801ZM128.318 248.171C125.222 249.7 127.795 253.539 130.682 252.339C133.789 251.047 131.117 246.789 128.318 248.171ZM270.303 250.137C266.309 252.315 269.494 259.318 273.683 256.914C277.524 254.709 274.361 247.924 270.303 250.137Z" fill="#05111D"/>
<path d="M375 281C376.917 282.577 378.423 284.083 380 286C392.966 280.97 405.649 273.845 419 270C419.627 266.904 420.673 263.749 424.044 262.647C427.505 261.516 431.926 264.1 431.534 268.011C430.937 273.965 423.28 274.076 419 275.71C406.342 280.541 394.078 287.423 381 291C380.556 297.61 376.197 303.548 369 303.707C364.184 303.813 361.582 300.727 357 303.881C342.09 314.145 331.764 328.58 327 346C336.101 343.398 344.566 338.461 353 334.247C357.999 331.749 363.484 329.813 368 326.482C379.92 317.69 390.325 305.393 403 297.829C411.031 293.036 422.999 289.573 432 287C432.136 281.37 433.959 276.345 440.001 274.692C442.446 274.023 445.144 275.042 447.486 274.052C451.569 272.328 460.358 263.347 461.122 259C461.676 255.849 458.879 251.994 458 249H426C421.4 249 415.58 248.054 411.13 249.318C406.629 250.596 404.006 257.243 399.996 259.891C395.491 262.866 389.641 261.318 385.61 264.028C380.927 267.176 377.611 276.095 375 281Z" fill="#F6F8FA"/>
<path d="M319.319 251.072C315.053 253.663 319.73 259.454 323.667 256.954C327.752 254.36 323.112 248.767 319.319 251.072ZM53.0158 252.757C42.2247 256.735 48.1916 274.697 58.9965 271.066C71.0861 267.004 64.9566 248.355 53.0158 252.757ZM543.001 252.616C531.016 255.38 534.99 273.723 546.996 270.562C558.075 267.646 554.317 250.006 543.001 252.616Z" fill="#05111D"/>
<path d="M373 255C364.541 264.255 350.577 267.885 342.51 277.326C336.767 284.046 335.72 297.64 333 306C339.363 304.866 352.287 300.243 355.976 294.61C358.395 290.916 357.714 286.635 361.214 283.228C363.664 280.843 367.089 280.543 369.61 278.412C372.865 275.66 378.329 266.318 378.293 262.002C378.271 259.398 376.315 257.1 375 255H373ZM477 280C478.364 276.488 480.711 272.059 485.004 271.662C491.719 271.041 496.007 279.966 491.682 284.852C486.946 290.202 482.483 286.011 477 285.363C471.275 284.688 462.746 286.569 457.015 287.595C451.738 288.539 449.025 293.223 444 294.384C440.263 295.248 436.782 292.969 433 293.832C428.829 294.783 424.913 297.321 421 298.999C416.816 300.793 411.763 302.004 408 304.563C402.603 308.235 397.996 313.624 393 317.866C388.497 321.689 382.721 324.641 380 330C392.874 327.61 407.311 330.144 419.896 326.682C424.052 325.539 425.679 320.717 430.004 319.529C433.403 318.596 436.689 320.838 440 319.803C449.61 316.799 448.344 303.219 458 301.539C462.467 300.761 465.668 304.989 470 305.029C478.441 305.106 487.75 300.008 496 298.285C500.444 297.358 506.835 297.039 510.49 294.066C513.744 291.418 515.299 284.946 516 281C508.957 276.184 502.502 270.259 496 264.728C493.487 262.591 490.553 259.146 487 259.009C484.26 258.904 481.622 260.851 479 261.468C475.447 262.304 471.378 261.023 468 262.313C464.059 263.819 460.896 268.085 458.001 271C456.267 272.746 449.536 278.109 452.662 280.972C454.438 282.598 457.894 281.848 460 281.576C465.595 280.852 471.36 280.116 477 280Z" fill="#F6F8FA"/>
<path d="M277.228 265.801C272.759 267.478 275.499 273.862 279.867 272.338C284.536 270.709 281.733 264.111 277.228 265.801ZM315.333 266.086C311.857 268.14 315.434 272.826 318.667 270.914C322.143 268.86 318.566 264.174 315.333 266.086ZM29.6428 276.082C27.5588 277.721 30.2217 281.135 32.3967 279.829C34.9672 278.284 32.0203 274.212 29.6428 276.082ZM567.603 276.082C565.207 277.821 567.818 281.729 570.258 279.918C572.678 278.122 570.118 274.257 567.603 276.082Z" fill="#05111D"/>
<path d="M269 291C272.291 303.058 278.664 314.223 284.85 325C287.615 329.817 291.572 334.694 293.301 340C294.522 343.747 294 348.114 294 352V375C294 404.045 296.135 433.864 273.999 455.999C270.286 459.713 266.561 463.117 262 465.768C251.621 471.799 238.066 476.428 226 476.961C215.867 477.408 206.02 474.877 196 477.236C181.385 480.678 170.939 492.344 158 499.218C151.497 502.673 144.743 505.488 138 508.424C133.042 510.583 128.571 512.535 127 518C142.062 516.81 156.341 511.297 169 503.136C177.509 497.65 185.458 490.119 195 486.468C205.625 482.403 218.843 485.91 230 484.83C253.051 482.6 274.027 473.105 287.702 454C292.337 447.524 296.294 440.04 297 432H299C299.761 439.593 303.784 446.777 308.029 453C320.704 471.582 341.812 482.683 364 484.83C377.756 486.161 393.167 481.952 406 488.273C422.167 496.236 434.523 509.079 452 514.656C458.019 516.577 464.787 518.785 471 517C466.346 507.897 451.462 506.012 443 501.334C429.264 493.741 417.655 481.047 402 477.428C390.853 474.851 380.212 477.452 369 476.961C359.493 476.544 349.473 473.428 341 469.191C321.255 459.319 306.177 441.223 303.289 419C301.755 407.193 303.481 394.885 302.961 383C302.536 373.306 302 363.747 302 354C302 349.446 301.438 344.441 302.613 340C304.131 334.259 307.898 329.164 310.691 324C316.118 313.968 322.356 303.157 325 292C313.033 300.435 303.59 317.644 298 331C292.352 321.424 286.458 312.058 280 303C276.834 298.559 273.945 293.511 269 291ZM111 335C126.008 334.99 140.964 333 156 333L157 328C151.833 327.237 146.945 325.313 142 323.667C136.511 321.839 132.356 322.772 127.015 321.937C120.687 320.947 120.787 313.04 127.001 311.832C130.569 311.138 133.251 314.955 136.09 316.446C141.855 319.474 150.545 322.531 157 323.427C162.244 324.156 166.55 319.965 171.999 321.434C175.973 322.506 178.198 325.558 180 329C190.957 327.615 201.959 328 213 328C207.617 320.421 199.019 314.496 192 308.424C189.018 305.845 185.95 302.307 182 301.318C177.684 300.237 172.426 301 168 301C159.703 301 151.284 300.582 143 301.043C138.973 301.267 135.032 303.457 131 302.44C121.186 299.964 112.229 300 102 300C98.2805 300 92.8327 299.015 89.3789 300.603C86.5645 301.898 82.9919 307.103 82.1358 310C80.8536 314.34 87.1834 320.165 90.4244 322.357C93.0767 324.151 96.0475 322.959 99 323.369C105.356 324.252 109.168 329.263 111 335ZM442 324L443 330C456.393 330 469.624 332 483 332C484.458 327.092 487.397 322.147 493 321.438C496.045 321.052 499.009 322.743 502 321.64C507.828 319.493 512.701 313.311 518 310C516.788 307.082 515.077 302.823 511.791 301.694C508.608 300.6 504.103 302.598 501 303.373C493.657 305.209 486.302 306.997 479 308.989C476.233 309.744 472.793 309.959 470.299 311.433C466.873 313.457 466.056 317.73 461.995 319.254C458.491 320.569 455.435 318.439 452 318.963C448.524 319.493 445.227 322.583 442 324Z" fill="#F6F8FA"/>
<path d="M27.757 304.082C24.8635 306.14 28.6395 310.151 31.2038 307.958C33.5808 305.924 30.1188 302.402 27.757 304.082ZM570.342 304.171C567.486 305.631 569.82 309.57 572.591 308.339C575.558 307.021 573.126 302.748 570.342 304.171ZM536.044 329.851C528.823 331.938 531.602 342.364 538.957 340.547C546.502 338.683 543.032 327.831 536.044 329.851Z" fill="#05111D"/>
<path d="M382 335C385.768 337.818 390.583 338.811 395 340.344C401.672 342.66 408.244 345.198 415 347.283C418.708 348.428 423.124 350.947 427 351.088C430.963 351.232 433.864 347.602 438 348.478C442.62 349.456 444.723 354.341 449.09 355.721C455.336 357.696 462.534 358.329 469 359.414C472.121 359.937 475.833 361.128 479 360.596C482.642 359.985 485.196 356.451 489 356.457C492.978 356.463 495.447 360.213 499 361.386C502.854 362.659 507.961 361.033 512 361C512.856 354.029 509.111 343.628 500.996 341.928C496.019 340.886 492.938 343.775 488 340.625C481.228 336.306 475.71 337.439 468 336.91C460.018 336.364 450.95 334.244 443 335.137C439.839 335.491 437.146 337.415 434 337.732C428.703 338.267 425.892 333.3 421 332.742C416.452 332.222 411.515 333.401 407 333.83C398.728 334.617 390.314 335 382 335ZM55.9997 392C62.8739 390.222 70.0079 388.862 76.9997 387.615C80.4095 387.007 84.6558 387.322 87.6857 385.427C92.6183 382.343 92.4798 375.355 98.9997 372.894C104.563 370.795 107.845 374.972 113 375.083C117.421 375.178 123.526 370.181 126.941 367.641C131.697 364.104 130.354 358.06 135.059 354.518C140.48 350.435 146.186 353.868 149 359C172.486 352.589 194.631 341.763 218 335C210.841 331.996 199.744 334 192 334C189.038 334 185.043 333.346 182.274 334.603C177.248 336.885 176.555 343.641 170 344.432C164.632 345.08 161.574 340.902 157 339.298C153.131 337.941 147.068 338.811 143 339.09C135.994 339.569 129.006 340.431 122 340.91C118.909 341.122 115.126 340.36 112.209 341.603C107.082 343.789 105.35 349.542 98.9997 350.296C93.0839 350.999 88.8688 345.058 82.9997 347.432C76.3442 350.124 75.6388 353.94 71.5668 358.893C69.6194 361.261 66.719 362.323 64.6378 364.495C62.1492 367.091 61.2034 370.852 59.6293 374C56.3938 380.471 52.1883 384.898 55.9997 392Z" fill="#F6F8FA"/>
<path d="M31.4378 348.047C27.4469 350.645 31.5295 357.25 35.5667 354.914C40.0003 352.347 35.8554 345.171 31.4378 348.047ZM564.315 348.072C559.869 350.741 564.296 358.603 568.679 355.338C572.739 352.314 568.847 345.35 564.315 348.072ZM144.314 384.137C140.194 386.336 143.451 392.211 147.686 390.238C151.833 388.307 148.181 382.073 144.314 384.137ZM499.604 386.032C495.674 389.069 500.41 395.365 504.678 392.123C509.068 388.788 503.516 383.01 499.604 386.032ZM546.015 385.782C535.255 389.481 540.831 406.728 551.956 402.257C561.46 398.437 556.245 382.266 546.015 385.782ZM507.259 410.059C504.757 410.566 505.42 414.545 507.981 414.08C510.722 413.583 509.997 409.505 507.259 410.059ZM90.0004 411C97.8016 409.222 93.758 417.77 90.0004 411Z" fill="#05111D"/>
<path d="M43 444C43.78 447.409 45.2388 451.97 48.3897 453.972C51.2297 455.777 55.7961 455 59 455C67.949 455 77.1183 455.591 86 454.424C100.442 452.528 115.439 452.24 130 450.83C158.362 448.084 186.593 443.369 215 441.086C224.317 440.337 233.648 439.048 243 438.999C247.119 438.978 255.016 439.421 258.49 436.972C261.385 434.931 261.721 430.193 262 427C239.585 427 217.274 429.602 195 431.831C144.423 436.891 93.8804 444 43 444ZM333 427L336 438C391.875 438.463 447.235 451.597 503 454.039C514.686 454.551 526.258 455 538 455C541.91 455 548.165 456.16 551.61 453.972C554.711 452.004 556.506 447.199 558 444C482.623 444 408.28 427 333 427ZM57 468C61.715 482.764 81.5111 478.059 94 477.999C131.545 477.818 168.687 467.945 206 465L207 459C204.77 459 205.048 457.827 203 457.167C200.863 456.477 197.231 456.783 195 457C177.621 458.69 160.385 462.31 143 464C114.69 466.752 85.5271 468 57 468ZM387 463C419.136 470.452 453.014 473.691 486 476.83C491.659 477.369 497.347 476.682 503 477.424C510.593 478.421 518.351 478 526 478C529.418 478 533.79 478.67 536.907 476.972C540.28 475.134 541.897 471.455 543 468C502.781 468 462.907 464.619 423 459.715C414.431 458.662 405.639 457.039 397 457.001C391.467 456.977 387.72 456.741 387 463ZM290 460C286.015 475.401 286.69 491.403 279.392 506C274.363 516.057 266.922 524.724 260.67 534C256.834 539.691 254.01 546.707 249.61 551.91C245.267 557.043 237.563 559.518 233.985 565.184C230.563 570.603 229.873 578.844 228.374 585C227.855 587.133 226.645 590.251 228.067 592.272C229.473 594.271 232.824 594.542 235 595C236.504 587.711 237.259 576.204 241.589 570.09C245.822 564.112 253.787 561.941 258.034 555.91C261.094 551.565 262.87 546.412 265.888 542C274.775 529.01 285.625 516.348 290.229 501C293.762 489.221 293.487 476.131 293 464L290 465C290.436 462.949 290.622 461.943 290 460ZM315 464C317.687 477.853 320.663 490.583 331.039 500.961C336.713 506.635 345.505 509.836 350.351 516.104C354.733 521.771 356.848 529.746 360.427 536C366.543 546.685 374.541 556.247 380.485 567C384.141 573.613 385.804 581.166 389 588C399.655 585.408 393.428 575.616 390.791 568C388.26 560.69 382.59 554.386 378.333 548C371.807 538.21 366.135 528.024 360 518C371.934 520.462 383.778 521.999 396 522V544C405.914 545.253 417.035 545.514 426 550.324C431.732 553.4 436.044 560.715 442 562.758C445.793 564.06 448.48 560.924 450 558C442.709 552.869 436.969 545.547 429 541.327C421.368 537.286 412.436 537 404 537V522C424.067 523.584 440.96 536.126 461 538.999C470.458 540.355 477.257 543.784 484 535C473.644 530.623 461.747 531.072 451 527.961C436.572 523.784 424.013 515.063 409 513.286C389.8 511.013 371.304 514.241 353 505.677C344.127 501.525 335.648 494.346 330.468 486C325.339 477.738 323.641 469.648 315 464ZM303 466C303 480.404 302.505 494.386 308.093 508C313.171 520.374 322.586 531.075 330.116 542C333.764 547.293 336.135 554.045 340.39 558.816C343.888 562.737 349.112 564.555 352.722 568.326C359.996 575.922 354.848 597.329 369 594C367.334 585.159 366.526 574.128 362.428 566.04C359.008 559.291 350.26 557.814 345.994 551.816C342.527 546.941 340.428 541.013 336.975 536C329.957 525.813 321.419 516.184 315.981 505C310.521 493.768 308.103 478.414 308 466C306.365 466.545 306.545 466.365 306 468C304.814 466.964 304.396 466.661 303 466ZM280 467C277.4 469.38 274.108 471.488 271.994 474.325C269.624 477.505 268.62 481.617 266.532 485C262.102 492.179 255.282 498.873 248 503.123C237.079 509.497 223.584 512.41 211 512.961C202.461 513.335 193.451 511.944 185 513.325C173.5 515.204 163.82 522.064 153 525.911C141.035 530.164 128.106 531.154 116 535C122.348 543.194 131.098 540.388 140 538.349C158.812 534.039 175.459 522.054 195 522C195 525.725 196.274 532.512 193.397 535.397C189.979 538.823 179.706 538.735 175 540.359C165.163 543.752 154.96 551.545 149 560C151.045 561.063 153.58 562.926 156.002 562.748C161.408 562.351 167.09 554.207 172 551.633C181.127 546.849 191.898 545.305 202 544C202 538.602 199.952 527.927 203.028 523.318C205.09 520.227 209.829 521.064 213 520.985C220.644 520.795 228.765 519.454 236 517C225.99 541.042 205.95 559.294 200 585L208 587C210.015 581.045 211.908 574.535 214.901 569C220.564 558.529 228.634 549.375 234.573 539C238.739 531.721 241.128 521.543 246.499 515.21C249.768 511.357 255.052 509.528 259 506.471C268.006 499.5 274.379 489.716 277.996 479C279.275 475.212 280.933 470.948 280 467ZM91 512C92.8066 514.576 94.7943 516.748 97 519C107.813 512.98 117.621 505.383 129 500.312C133.524 498.297 139.599 499.091 143.682 496.566C146.308 494.942 145.968 491.69 146 489C140.785 489 135.065 488.349 130 489.789C116.162 493.72 103.498 505.068 91 512ZM455 490C455.033 492.765 454.736 495.935 457.318 497.697C461.843 500.783 468.928 500.954 474 503.173C480.174 505.874 486.106 509.592 492 512.861C494.751 514.387 497.801 516.79 501 517.214C504.796 517.717 507.027 514.708 509 512C496.47 505.331 483.646 494.742 470 490.649C465.35 489.254 459.808 490 455 490ZM74 492C75.3683 494.985 77.6255 499.335 81.1698 500.184C85.8859 501.312 94.957 495.301 99 493C92.0721 490.093 81.497 492 74 492ZM500 492C503.706 495.188 513.729 501.819 518.83 500.292C522.358 499.235 524.594 495.066 526 492H500ZM303 531C303.849 537.717 304 544.226 304 551C304 554.398 303.315 558.806 305.028 561.895C309.081 569.209 320.867 570.637 326.486 576.61C330.977 581.382 331.5 593.672 332 600H340C339.711 593.264 338.303 586.601 337.001 580C336.357 576.736 336.178 573.072 333.683 570.61C328.115 565.116 317.111 563.623 313.024 556.79C310.838 553.135 311.593 548.022 310.589 544.001C309.452 539.452 306.26 534.293 303 531ZM291 532C288.586 535.729 285.23 539.594 284.34 544.039C283.479 548.338 285.117 553.817 282.142 557.505C277.416 563.364 267.79 564.551 262.303 569.637C259.691 572.06 259.269 575.684 258.6 579C257.27 585.595 256.056 592.259 256 599C258.686 599.501 261.27 599.883 264 600C264.826 593.461 264.19 582.965 267.988 577.379C272.405 570.883 282.934 569.139 288.682 563.907C291.059 561.743 290.979 558.996 290.999 555.999C291.048 548.928 293.709 538.458 291 532ZM174 573C181.545 577.14 184.295 572.174 186 565C179.266 561.969 176.473 567.271 174 573ZM415 578L423 575C421.93 571.619 420.234 566.949 417.366 564.643C415.349 563.023 411.581 563.477 410.816 566.279C409.864 569.768 413.696 574.868 415 578ZM290 602H305C302.447 593.012 292.89 593.598 290 602Z" fill="#F6F8FA"/>
</g>
<defs>
<clipPath id="clip0_130_69278">
<rect width="600" height="611" fill="white"/>
</clipPath>
</defs>
</svg>
