<svg width="39" height="38" viewBox="0 0 39 38" fill="none" xmlns="http://www.w3.org/2000/svg">
<rect width="38.0298" height="38" rx="8" fill="#EEF9E9"/>
<path d="M30.4379 17.5744L20.4338 7.57026C20.2435 7.38811 20.0191 7.24532 19.7735 7.15009C19.2864 6.94997 18.74 6.94997 18.2529 7.15009C18.0073 7.24532 17.7829 7.38811 17.5926 7.57026L7.58843 17.5744C7.40187 17.761 7.25389 17.9824 7.15293 18.2262C7.05197 18.4699 7 18.7312 7 18.995C7 19.5278 7.21166 20.0388 7.58843 20.4156C7.96519 20.7924 8.47619 21.004 9.00902 21.004C9.54184 21.004 10.0528 20.7924 10.4296 20.4156L17.0123 13.8129V28.9992C17.0123 29.5298 17.2231 30.0387 17.5984 30.414C17.9736 30.7892 18.4825 31 19.0132 31C19.5438 31 20.0527 30.7892 20.428 30.414C20.8032 30.0387 21.014 29.5298 21.014 28.9992V13.8129L27.5967 20.4156C27.7827 20.6031 28.004 20.752 28.2479 20.8536C28.4917 20.9551 28.7532 21.0074 29.0173 21.0074C29.2815 21.0074 29.543 20.9551 29.7868 20.8536C30.0306 20.752 30.2519 20.6031 30.4379 20.4156C30.6255 20.2296 30.7743 20.0083 30.8759 19.7645C30.9775 19.5207 31.0298 19.2591 31.0298 18.995C31.0298 18.7309 30.9775 18.4694 30.8759 18.2255C30.7743 17.9817 30.6255 17.7604 30.4379 17.5744Z" fill="#23500E"/>
</svg>
