<svg width="39" height="38" viewBox="0 0 39 38" fill="none" xmlns="http://www.w3.org/2000/svg">
<rect width="38.0298" height="38" rx="8" fill="#F9E9F0"/>
<path d="M7.59187 20.4256L17.596 30.4297C17.7863 30.6119 18.0107 30.7547 18.2563 30.8499C18.7434 31.05 19.2898 31.05 19.7769 30.8499C20.0225 30.7547 20.2469 30.6119 20.4372 30.4297L30.4414 20.4256C30.6279 20.239 30.7759 20.0176 30.8769 19.7738C30.9778 19.5301 31.0298 19.2688 31.0298 19.005C31.0298 18.4722 30.8181 17.9612 30.4414 17.5844C30.0646 17.2076 29.5536 16.996 29.0208 16.996C28.4879 16.996 27.9769 17.2076 27.6002 17.5844L21.0174 24.1871L21.0174 9.00083C21.0174 8.47018 20.8066 7.96126 20.4314 7.58603C20.0562 7.2108 19.5473 7 19.0166 7C18.486 7 17.977 7.2108 17.6018 7.58603C17.2266 7.96126 17.0158 8.47018 17.0158 9.00083L17.0158 24.1871L10.433 17.5844C10.247 17.3969 10.0257 17.248 9.78193 17.1464C9.53811 17.0449 9.27659 16.9926 9.01245 16.9926C8.74832 16.9926 8.4868 17.0449 8.24298 17.1464C7.99916 17.248 7.77787 17.3969 7.59187 17.5844C7.40433 17.7704 7.25548 17.9917 7.1539 18.2355C7.05232 18.4793 7.00002 18.7409 7.00002 19.005C7.00002 19.2691 7.05232 19.5306 7.1539 19.7745C7.25548 20.0183 7.40433 20.2396 7.59187 20.4256Z" fill="#500E2D"/>
</svg>
