<svg width="38" height="39" viewBox="0 0 38 39" fill="none" xmlns="http://www.w3.org/2000/svg">
<rect width="38" height="38.0298" rx="8" fill="#E7E7E7"/>
<path d="M7.57026 17.596L17.5744 7.59187C17.7604 7.40433 17.9817 7.25548 18.2255 7.1539C18.4694 7.05232 18.7309 7.00002 18.995 7.00002C19.2591 7.00002 19.5207 7.05232 19.7645 7.1539C20.0083 7.25548 20.2296 7.40433 20.4156 7.59187C20.9463 7.59187 30.0387 17.2266 30.414 17.6018C30.7892 17.977 31 18.486 31 19.0166C31 19.5473 30.7892 20.0562 30.414 20.4314C30.0789 20.7665 22.3818 28.7827 20.3606 30.4943C20.2987 30.5517 20.2334 30.6049 20.1653 30.6537C20.0314 30.7578 19.9408 30.8139 19.901 30.8139C19.6227 30.9545 19.3127 31.0298 18.995 31.0298C18.7312 31.0298 18.4699 30.9778 18.2262 30.8769C17.9824 30.7759 17.761 30.6279 17.5744 30.4414L7.57026 20.4372C7.38811 20.2469 7.24532 20.0225 7.15009 19.7769C6.94997 19.2898 6.94997 18.7434 7.15009 18.2563C7.24532 18.0107 7.38811 17.7863 7.57026 17.596Z" fill="#3D3D3D"/>
</svg>
